<?xml version="1.0" encoding="UTF-8"?>
<svg xmlns="http://www.w3.org/2000/svg" version="1.1" viewBox="50 210 480 370">
  <g isolation="isolate">
    <g id="Layer_1" data-name="Layer 1">
      <path d="M354.572,394.288c0-51.293-25.447-96.638-64.402-124.113-38.955,27.475-64.402,72.82-64.402,124.113s25.447,96.638,64.402,124.113c38.955-27.475,64.402-72.82,64.402-124.113Z" fill="#363644" stroke="#363644" stroke-miterlimit="10" stroke-width=".5"/>
      <path d="M377.546,242.509c-32.532,0-62.669,10.24-87.376,27.665,38.955,27.475,64.402,72.82,64.402,124.113s-25.447,96.638-64.402,124.113c24.706,17.425,54.844,27.665,87.376,27.665,83.825,0,151.778-67.953,151.778-151.778s-67.953-151.778-151.778-151.778Z" fill="#c1f7ae" stroke="#363644" stroke-miterlimit="10" stroke-width=".5"/>
      <path d="M225.768,394.288c0-51.293,25.447-96.638,64.402-124.113-24.706-17.425-54.844-27.665-87.376-27.665-83.825,0-151.778,67.953-151.778,151.778s67.953,151.778,151.778,151.778c32.532,0,62.67-10.24,87.376-27.665-38.955-27.475-64.402-72.82-64.402-124.113Z" fill="#a7a1f4" mix-blend-mode="multiply" stroke="#363644" stroke-miterlimit="10" stroke-width=".5"/>
      <g>
        <path d="M261.023,217.931c-.089-.755-.453-1.342-1.089-1.76s-1.417-.626-2.341-.626c-.676,0-1.267.109-1.771.328-.504.219-.897.52-1.178.902s-.421.817-.421,1.305c0,.408.098.757.295,1.048.196.291.448.532.757.724.308.191.631.348.969.47.338.122.649.22.932.294l1.551.418c.398.104.841.249,1.331.433s.959.434,1.41.749c.45.316.821.72,1.115,1.212s.44,1.097.44,1.812c0,.825-.215,1.571-.645,2.237s-1.057,1.195-1.879,1.588-1.821.59-2.994.59c-1.094,0-2.04-.177-2.837-.53-.798-.353-1.424-.845-1.879-1.477-.455-.631-.712-1.364-.771-2.199h1.909c.05.576.245,1.053.585,1.428.341.376.773.654,1.298.835.524.182,1.09.272,1.696.272.706,0,1.34-.115,1.902-.347.562-.231,1.007-.555,1.335-.97s.492-.9.492-1.458c0-.507-.142-.919-.425-1.237-.283-.318-.656-.577-1.119-.775-.462-.199-.962-.373-1.499-.522l-1.879-.537c-1.193-.343-2.138-.832-2.834-1.469-.696-.637-1.044-1.47-1.044-2.498,0-.855.232-1.603.697-2.241s1.091-1.136,1.879-1.491c.788-.355,1.669-.533,2.644-.533.984,0,1.859.175,2.625.525s1.373.829,1.823,1.436c.45.606.687,1.295.712,2.065h-1.79Z" fill="#363644" stroke-width="0"/>
        <path d="M270.479,229.624c-1.074,0-1.999-.254-2.774-.761-.776-.507-1.373-1.205-1.79-2.096-.417-.89-.626-1.906-.626-3.05,0-1.163.215-2.191.645-3.084.43-.892,1.032-1.591,1.805-2.095.773-.505,1.677-.757,2.711-.757.805,0,1.531.148,2.178.447.646.298,1.175.716,1.588,1.253.413.536.668,1.163.768,1.879h-1.76c-.134-.522-.431-.985-.891-1.391s-1.078-.608-1.853-.608c-.686,0-1.286.179-1.801.533-.515.356-.915.855-1.201,1.499-.286.645-.429,1.398-.429,2.264,0,.885.14,1.655.421,2.312.281.656.678,1.166,1.193,1.529.515.362,1.12.544,1.816.544.458,0,.873-.079,1.246-.238.373-.159.688-.388.947-.687.259-.298.442-.656.552-1.073h1.76c-.1.676-.344,1.283-.735,1.823-.39.539-.905.967-1.543,1.282s-1.381.474-2.226.474Z" fill="#363644" stroke-width="0"/>
        <path d="M278.444,216.022c-.343,0-.638-.116-.884-.351-.246-.233-.369-.514-.369-.842s.123-.609.369-.843c.246-.234.541-.351.884-.351s.637.116.883.351c.246.233.369.515.369.843s-.123.608-.369.842c-.246.234-.541.351-.883.351ZM277.549,229.386v-11.455h1.76v11.455h-1.76Z" fill="#363644" stroke-width="0"/>
        <path d="M287.333,229.624c-1.104,0-2.055-.245-2.853-.734s-1.412-1.176-1.842-2.059c-.43-.882-.645-1.91-.645-3.083s.215-2.209.645-3.106c.43-.897,1.032-1.599,1.805-2.103.773-.505,1.677-.757,2.711-.757.597,0,1.186.099,1.768.298.582.199,1.111.521,1.588.966.477.445.857,1.033,1.141,1.764.284.73.425,1.631.425,2.699v.746h-8.83v-1.521h7.04c0-.646-.128-1.223-.384-1.73-.256-.507-.619-.907-1.089-1.2s-1.023-.44-1.659-.44c-.701,0-1.306.173-1.816.519s-.901.794-1.174,1.347c-.273.552-.41,1.144-.41,1.774v1.015c0,.864.15,1.597.451,2.195.301.6.719,1.055,1.256,1.365s1.161.466,1.872.466c.462,0,.881-.065,1.256-.197s.7-.331.973-.597.485-.598.634-.996l1.7.478c-.179.577-.479,1.083-.902,1.518-.422.436-.944.773-1.566,1.015s-1.32.361-2.095.361Z" fill="#363644" stroke-width="0"/>
        <path d="M296.52,222.495v6.891h-1.76v-11.455h1.7v1.79h.149c.268-.582.676-1.05,1.223-1.405s1.253-.533,2.119-.533c.775,0,1.454.157,2.035.473.582.316,1.034.794,1.357,1.433s.485,1.445.485,2.42v7.278h-1.761v-7.159c0-.9-.233-1.603-.7-2.106-.468-.505-1.109-.758-1.925-.758-.562,0-1.062.122-1.502.366-.44.243-.787.599-1.041,1.066-.253.467-.38,1.034-.38,1.7Z" fill="#363644" stroke-width="0"/>
        <path d="M311.703,229.624c-1.073,0-1.998-.254-2.773-.761-.776-.507-1.373-1.205-1.79-2.096-.418-.89-.627-1.906-.627-3.05,0-1.163.216-2.191.646-3.084.43-.892,1.031-1.591,1.805-2.095.772-.505,1.677-.757,2.711-.757.805,0,1.531.148,2.178.447.646.298,1.175.716,1.588,1.253.413.536.669,1.163.769,1.879h-1.761c-.134-.522-.431-.985-.891-1.391s-1.078-.608-1.854-.608c-.686,0-1.286.179-1.801.533-.515.356-.915.855-1.2,1.499-.286.645-.429,1.398-.429,2.264,0,.885.14,1.655.421,2.312s.679,1.166,1.193,1.529c.515.362,1.119.544,1.815.544.458,0,.873-.079,1.246-.238.372-.159.688-.388.946-.687.259-.298.442-.656.552-1.073h1.761c-.1.676-.345,1.283-.735,1.823-.39.539-.904.967-1.543,1.282s-1.381.474-2.227.474Z" fill="#363644" stroke-width="0"/>
        <path d="M323.575,229.624c-1.104,0-2.055-.245-2.853-.734s-1.412-1.176-1.842-2.059c-.43-.882-.646-1.91-.646-3.083s.216-2.209.646-3.106,1.031-1.599,1.805-2.103c.772-.505,1.677-.757,2.711-.757.597,0,1.186.099,1.768.298.581.199,1.11.521,1.588.966s.857,1.033,1.141,1.764c.284.73.426,1.631.426,2.699v.746h-8.83v-1.521h7.04c0-.646-.128-1.223-.384-1.73-.257-.507-.619-.907-1.089-1.2s-1.023-.44-1.659-.44c-.701,0-1.307.173-1.816.519s-.901.794-1.174,1.347c-.273.552-.41,1.144-.41,1.774v1.015c0,.864.149,1.597.451,2.195.301.6.719,1.055,1.256,1.365s1.161.466,1.872.466c.462,0,.881-.065,1.257-.197.375-.132.699-.331.973-.597s.485-.598.634-.996l1.7.478c-.179.577-.479,1.083-.902,1.518-.422.436-.944.773-1.565,1.015-.622.241-1.32.361-2.096.361Z" fill="#363644" stroke-width="0"/>
      </g>
      <g>
        <path d="M92.288,394.288v-15.273h1.849v6.801h8.144v-6.801h1.85v15.273h-1.85v-6.832h-8.144v6.832h-1.849Z" fill="#363644" stroke-width="0"/>
        <path d="M114.809,389.605v-6.771h1.76v11.455h-1.76v-1.939h-.119c-.269.582-.687,1.075-1.253,1.48-.567.405-1.283.607-2.148.607-.716,0-1.352-.158-1.909-.473-.557-.316-.994-.793-1.312-1.433-.318-.639-.477-1.445-.477-2.42v-7.278h1.76v7.159c0,.835.235,1.501.705,1.999.47.496,1.07.745,1.801.745.438,0,.884-.112,1.338-.335.455-.225.838-.567,1.148-1.029.311-.463.466-1.052.466-1.768Z" fill="#363644" stroke-width="0"/>
        <path d="M119.791,394.288v-11.455h1.7v1.79h.149c.238-.612.624-1.088,1.156-1.429.532-.34,1.171-.51,1.917-.51.755,0,1.386.17,1.891.51.504.341.898.816,1.182,1.429h.12c.293-.592.733-1.063,1.32-1.413.586-.351,1.29-.525,2.11-.525,1.024,0,1.862.318,2.513.957.651.64.977,1.633.977,2.98v7.666h-1.76v-7.666c0-.846-.231-1.449-.693-1.812s-1.007-.545-1.633-.545c-.805,0-1.429.242-1.872.728-.443.484-.664,1.097-.664,1.838v7.458h-1.79v-7.846c0-.651-.211-1.177-.634-1.577-.423-.4-.967-.601-1.633-.601-.458,0-.884.122-1.279.365-.396.244-.713.581-.955,1.011-.241.431-.362.927-.362,1.487v7.16h-1.76Z" fill="#363644" stroke-width="0"/>
        <path d="M141.417,394.556c-.726,0-1.385-.138-1.976-.414-.592-.275-1.062-.676-1.41-1.2-.348-.524-.522-1.159-.522-1.905,0-.656.129-1.189.388-1.6.259-.41.604-.732,1.037-.966.433-.233.911-.409,1.436-.525.524-.117,1.053-.21,1.585-.28.696-.089,1.261-.157,1.696-.205.435-.047.753-.127.955-.242.202-.114.302-.312.302-.596v-.061c0-.735-.2-1.307-.601-1.715-.4-.408-1.005-.611-1.816-.611-.84,0-1.499.184-1.976.552-.477.368-.813.761-1.007,1.179l-1.67-.598c.298-.695.697-1.238,1.197-1.629.5-.391,1.046-.664,1.641-.82.594-.156,1.179-.234,1.756-.234.368,0,.792.043,1.271.13.48.087.945.265,1.395.533.45.269.824.674,1.123,1.216.298.541.447,1.268.447,2.178v7.547h-1.76v-1.552h-.089c-.12.249-.318.515-.597.798-.279.283-.649.525-1.111.724s-1.027.298-1.693.298ZM141.685,392.976c.696,0,1.284-.137,1.764-.41.479-.273.843-.627,1.089-1.06s.369-.888.369-1.364v-1.611c-.075.09-.238.17-.489.242s-.539.135-.865.188c-.326.052-.642.096-.947.134-.306.037-.553.068-.742.093-.458.061-.884.156-1.279.287-.395.132-.713.328-.955.59-.241.261-.361.615-.361,1.062,0,.611.227,1.072.682,1.383s1.033.467,1.734.467Z" fill="#363644" stroke-width="0"/>
        <path d="M151.648,387.398v6.891h-1.76v-11.455h1.7v1.79h.149c.268-.582.676-1.05,1.223-1.405s1.253-.533,2.118-.533c.775,0,1.454.157,2.036.473.582.316,1.034.793,1.357,1.432s.485,1.445.485,2.42v7.279h-1.76v-7.16c0-.899-.234-1.602-.701-2.105-.468-.506-1.109-.758-1.924-.758-.562,0-1.062.122-1.502.365-.44.244-.787.6-1.041,1.066-.253.468-.38,1.035-.38,1.701Z" fill="#363644" stroke-width="0"/>
        <path d="M170.292,385.399l-1.581.447c-.1-.263-.245-.521-.437-.771s-.451-.459-.779-.623-.748-.246-1.26-.246c-.701,0-1.284.161-1.749.481s-.697.727-.697,1.219c0,.438.159.783.477,1.037.318.254.815.465,1.492.634l1.7.417c1.024.249,1.787.628,2.29,1.138.502.51.753,1.165.753,1.965,0,.656-.188,1.243-.563,1.761-.375.517-.898.924-1.57,1.223-.671.298-1.452.447-2.341.447-1.168,0-2.136-.254-2.901-.761-.766-.507-1.25-1.248-1.455-2.222l1.67-.418c.159.616.461,1.078.906,1.387s1.028.463,1.749.463c.82,0,1.473-.176,1.958-.526.484-.351.727-.771.727-1.264,0-.397-.139-.732-.418-1.003-.278-.271-.706-.474-1.282-.607l-1.909-.448c-1.049-.249-1.818-.635-2.308-1.159-.49-.525-.735-1.182-.735-1.973,0-.646.183-1.219.548-1.715.365-.498.865-.888,1.499-1.172.634-.283,1.354-.424,2.159-.424,1.134,0,2.025.248,2.674.745.648.497,1.11,1.153,1.383,1.969Z" fill="#363644" stroke-width="0"/>
      </g>
      <g>
        <path d="M404.98,379.015h2.207l5.19,12.678h.179l5.19-12.678h2.207v15.273h-1.729v-11.604h-.149l-4.772,11.604h-1.671l-4.772-11.604h-.149v11.604h-1.729v-15.273Z" fill="#363644" stroke-width="0"/>
        <path d="M426.785,394.556c-.727,0-1.385-.138-1.977-.414-.592-.275-1.062-.676-1.409-1.2s-.522-1.159-.522-1.905c0-.656.13-1.189.388-1.6.259-.41.604-.732,1.037-.966s.911-.409,1.436-.525c.524-.117,1.053-.21,1.585-.28.695-.089,1.261-.157,1.696-.205.435-.047.753-.127.954-.242.202-.114.303-.312.303-.596v-.061c0-.735-.2-1.307-.601-1.715s-1.006-.611-1.816-.611c-.84,0-1.498.184-1.976.552s-.813.761-1.007,1.179l-1.671-.598c.299-.695.697-1.238,1.197-1.629s1.047-.664,1.641-.82,1.18-.234,1.756-.234c.368,0,.792.043,1.271.13.48.087.945.265,1.395.533.45.269.824.674,1.123,1.216.298.541.447,1.268.447,2.178v7.547h-1.76v-1.552h-.09c-.119.249-.318.515-.597.798s-.648.525-1.111.724c-.462.198-1.026.298-1.692.298ZM427.054,392.976c.695,0,1.283-.137,1.764-.41.479-.273.843-.627,1.089-1.06s.369-.888.369-1.364v-1.611c-.075.09-.238.17-.489.242s-.539.135-.864.188c-.326.052-.642.096-.947.134-.306.037-.554.068-.742.093-.457.061-.884.156-1.279.287-.395.132-.713.328-.954.59-.241.261-.361.615-.361,1.062,0,.611.227,1.072.682,1.383s1.033.467,1.734.467Z" fill="#363644" stroke-width="0"/>
        <path d="M439.91,394.527c-1.074,0-1.999-.254-2.774-.761s-1.372-1.206-1.79-2.096c-.417-.89-.626-1.906-.626-3.05,0-1.164.215-2.191.645-3.084.431-.893,1.032-1.591,1.805-2.096.773-.504,1.677-.756,2.711-.756.806,0,1.531.148,2.178.447.646.298,1.176.715,1.589,1.252.412.537.668,1.164.768,1.88h-1.76c-.134-.522-.432-.985-.892-1.392-.46-.404-1.077-.607-1.853-.607-.687,0-1.286.178-1.801.533s-.915.855-1.201,1.499-.429,1.398-.429,2.264c0,.885.141,1.655.422,2.312.28.656.678,1.166,1.192,1.529.515.362,1.12.544,1.816.544.457,0,.872-.079,1.245-.239.373-.158.688-.387.947-.686s.442-.656.552-1.074h1.76c-.1.677-.344,1.284-.734,1.824-.391.539-.905.967-1.544,1.282s-1.381.474-2.226.474Z" fill="#363644" stroke-width="0"/>
        <path d="M448.739,387.398v6.891h-1.76v-15.273h1.76v5.608h.149c.269-.592.673-1.063,1.212-1.413.539-.351,1.259-.525,2.159-.525.78,0,1.464.154,2.051.465.586.312,1.043.786,1.368,1.425.325.64.488,1.45.488,2.435v7.279h-1.76v-7.16c0-.909-.235-1.613-.705-2.113s-1.119-.75-1.95-.75c-.576,0-1.092.122-1.547.365-.455.244-.812.6-1.074,1.066-.261.468-.392,1.035-.392,1.701Z" fill="#363644" stroke-width="0"/>
        <path d="M460.283,380.924c-.343,0-.638-.116-.884-.351-.246-.233-.369-.514-.369-.842s.123-.609.369-.844c.246-.233.541-.35.884-.35s.638.116.884.35c.246.234.369.516.369.844s-.123.608-.369.842c-.246.234-.541.351-.884.351ZM459.389,394.288v-11.455h1.76v11.455h-1.76Z" fill="#363644" stroke-width="0"/>
        <path d="M466.13,387.398v6.891h-1.76v-11.455h1.7v1.79h.149c.268-.582.676-1.05,1.223-1.405s1.253-.533,2.118-.533c.775,0,1.454.157,2.035.473.582.316,1.034.793,1.357,1.432s.485,1.445.485,2.42v7.279h-1.761v-7.16c0-.899-.233-1.602-.7-2.105-.468-.506-1.109-.758-1.925-.758-.562,0-1.062.122-1.502.365-.44.244-.787.6-1.041,1.066-.253.468-.38,1.035-.38,1.701Z" fill="#363644" stroke-width="0"/>
        <path d="M481.462,394.527c-1.104,0-2.055-.245-2.853-.734-.798-.49-1.412-1.176-1.842-2.059s-.646-1.91-.646-3.084.216-2.208.646-3.105,1.031-1.599,1.805-2.104c.772-.504,1.677-.756,2.711-.756.597,0,1.186.099,1.768.298.581.198,1.11.521,1.588.966s.857,1.033,1.141,1.764c.284.73.426,1.631.426,2.699v.746h-8.83v-1.521h7.04c0-.646-.128-1.223-.384-1.73-.257-.507-.619-.907-1.089-1.2-.47-.294-1.023-.44-1.659-.44-.701,0-1.307.173-1.816.519s-.901.794-1.174,1.347c-.273.551-.41,1.143-.41,1.774v1.015c0,.864.149,1.597.451,2.195.301.6.719,1.055,1.256,1.365s1.161.466,1.872.466c.462,0,.881-.065,1.257-.198.375-.131.699-.33.973-.596s.485-.598.634-.996l1.7.478c-.179.577-.479,1.083-.902,1.518-.422.435-.944.772-1.565,1.015-.622.24-1.32.361-2.096.361Z" fill="#363644" stroke-width="0"/>
        <path d="M497.003,385.399l-1.581.447c-.1-.263-.245-.521-.437-.771s-.451-.459-.779-.623-.748-.246-1.26-.246c-.701,0-1.284.161-1.749.481s-.697.727-.697,1.219c0,.438.159.783.478,1.037s.815.465,1.491.634l1.7.417c1.024.249,1.787.628,2.29,1.138.502.51.753,1.165.753,1.965,0,.656-.188,1.243-.563,1.761-.375.517-.898.924-1.569,1.223-.671.298-1.452.447-2.342.447-1.168,0-2.136-.254-2.9-.761-.767-.507-1.251-1.248-1.455-2.222l1.671-.418c.159.616.461,1.078.906,1.387.444.309,1.027.463,1.749.463.82,0,1.473-.176,1.957-.526s.728-.771.728-1.264c0-.397-.14-.732-.418-1.003-.278-.271-.706-.474-1.282-.607l-1.909-.448c-1.05-.249-1.818-.635-2.309-1.159-.489-.525-.734-1.182-.734-1.973,0-.646.183-1.219.548-1.715.365-.498.865-.888,1.499-1.172.634-.283,1.354-.424,2.159-.424,1.134,0,2.024.248,2.674.745.648.497,1.109,1.153,1.383,1.969Z" fill="#363644" stroke-width="0"/>
      </g>
      <g>
        <path d="M277.758,570.084h-1.939l5.608-15.272h1.909l5.608,15.272h-1.939l-4.564-12.856h-.12l-4.563,12.856ZM278.474,564.118h7.815v1.641h-7.815v-1.641Z" fill="#363644" stroke-width="0"/>
        <path d="M291.091,570.084v-11.454h1.7v1.729h.119c.209-.566.587-1.026,1.134-1.379.547-.354,1.163-.529,1.85-.529.129,0,.291.002.484.007s.341.013.44.022v1.79c-.06-.015-.195-.039-.406-.071s-.434-.048-.667-.048c-.557,0-1.053.115-1.488.347-.435.23-.778.549-1.029.954-.251.405-.377.866-.377,1.384v7.248h-1.76Z" fill="#363644" stroke-width="0"/>
        <path d="M303.888,558.63v1.491h-5.936v-1.491h5.936ZM299.682,555.886h1.76v10.917c0,.497.073.869.22,1.115s.336.41.567.492c.23.082.476.123.734.123.193,0,.353-.012.478-.033.124-.022.224-.041.298-.057l.358,1.581c-.12.045-.286.091-.5.138-.214.048-.484.071-.812.071-.498,0-.983-.107-1.458-.32-.476-.214-.868-.54-1.179-.978s-.466-.989-.466-1.655v-11.395Z" fill="#363644" stroke-width="0"/>
      </g>
      <g>
        <path d="M241.604,376.072h2.207l5.19,12.678h.179l5.19-12.678h2.207v15.272h-1.729v-11.604h-.149l-4.772,11.604h-1.671l-4.772-11.604h-.149v11.604h-1.729v-15.272Z" fill="#fff" stroke-width="0"/>
        <path d="M261.144,377.982c-.344,0-.638-.117-.884-.351s-.369-.515-.369-.843.123-.608.369-.842c.246-.234.54-.352.884-.352s.637.117.883.352c.246.233.369.514.369.842s-.123.609-.369.843-.54.351-.883.351ZM260.248,391.345v-11.454h1.76v11.454h-1.76Z" fill="#fff" stroke-width="0"/>
        <path d="M273.554,382.456l-1.581.447c-.1-.264-.245-.521-.437-.771s-.451-.459-.779-.623-.748-.246-1.26-.246c-.701,0-1.284.16-1.749.48-.465.321-.697.728-.697,1.22,0,.438.159.783.478,1.036.318.254.815.466,1.491.635l1.7.418c1.024.248,1.787.627,2.29,1.137.502.51.753,1.164.753,1.965,0,.656-.188,1.243-.563,1.76-.375.518-.898.925-1.569,1.223-.671.299-1.452.448-2.342.448-1.168,0-2.136-.254-2.9-.761-.767-.508-1.251-1.248-1.455-2.223l1.671-.418c.159.617.461,1.08.906,1.388.444.309,1.027.462,1.749.462.82,0,1.473-.175,1.957-.525s.728-.771.728-1.264c0-.398-.14-.732-.418-1.004-.278-.27-.706-.473-1.282-.607l-1.909-.447c-1.05-.248-1.818-.635-2.309-1.16-.489-.523-.734-1.182-.734-1.972,0-.646.183-1.218.548-1.716.365-.496.865-.887,1.499-1.17s1.354-.426,2.159-.426c1.134,0,2.024.249,2.674.746.648.497,1.109,1.153,1.383,1.969Z" fill="#fff" stroke-width="0"/>
        <path d="M278.387,384.454v6.891h-1.76v-15.272h1.76v5.608h.149c.269-.592.673-1.062,1.212-1.414.539-.35,1.259-.525,2.159-.525.78,0,1.464.156,2.051.467.586.311,1.043.785,1.368,1.424s.488,1.451.488,2.436v7.277h-1.76v-7.158c0-.91-.235-1.615-.705-2.115-.47-.499-1.119-.749-1.95-.749-.576,0-1.092.122-1.547.366-.455.243-.812.599-1.074,1.066-.261.467-.392,1.033-.392,1.699Z" fill="#fff" stroke-width="0"/>
        <path d="M289.484,376.072h2.207l5.19,12.678h.18l5.19-12.678h2.207v15.272h-1.73v-11.604h-.148l-4.773,11.604h-1.67l-4.773-11.604h-.148v11.604h-1.73v-15.272Z" fill="#fff" stroke-width="0"/>
        <path d="M311.5,391.614c-.727,0-1.385-.139-1.977-.414-.592-.276-1.062-.676-1.409-1.201-.348-.524-.522-1.16-.522-1.905,0-.656.13-1.189.388-1.6.259-.41.604-.731,1.037-.966.433-.233.911-.408,1.436-.525s1.053-.21,1.585-.279c.695-.09,1.261-.158,1.696-.205.435-.048.753-.129.954-.243.202-.114.303-.313.303-.597v-.06c0-.735-.2-1.308-.601-1.715s-1.006-.612-1.816-.612c-.84,0-1.498.185-1.976.553-.478.367-.813.76-1.007,1.178l-1.671-.596c.299-.697.697-1.24,1.197-1.63s1.047-.664,1.641-.82c.594-.157,1.18-.235,1.756-.235.368,0,.792.044,1.271.131.48.087.945.265,1.395.533.45.269.824.674,1.123,1.215.298.543.447,1.269.447,2.178v7.547h-1.76v-1.551h-.09c-.119.249-.318.515-.597.798-.278.284-.648.524-1.111.724-.462.199-1.026.299-1.692.299ZM311.769,390.032c.695,0,1.283-.137,1.764-.41.479-.273.843-.626,1.089-1.059s.369-.887.369-1.365v-1.61c-.075.09-.238.171-.489.243s-.539.134-.864.186c-.326.053-.642.098-.947.135s-.554.068-.742.093c-.457.06-.884.155-1.279.287-.395.132-.713.328-.954.589-.241.262-.361.615-.361,1.062,0,.612.227,1.073.682,1.384.455.312,1.033.466,1.734.466Z" fill="#fff" stroke-width="0"/>
        <path d="M328.295,382.456l-1.581.447c-.1-.264-.245-.521-.437-.771s-.451-.459-.779-.623-.748-.246-1.26-.246c-.701,0-1.284.16-1.749.48-.465.321-.697.728-.697,1.22,0,.438.159.783.478,1.036.318.254.815.466,1.491.635l1.7.418c1.024.248,1.787.627,2.29,1.137.502.51.753,1.164.753,1.965,0,.656-.188,1.243-.563,1.76-.375.518-.898.925-1.569,1.223-.671.299-1.452.448-2.342.448-1.168,0-2.136-.254-2.9-.761-.767-.508-1.251-1.248-1.455-2.223l1.671-.418c.159.617.461,1.08.906,1.388.444.309,1.027.462,1.749.462.82,0,1.473-.175,1.957-.525s.728-.771.728-1.264c0-.398-.14-.732-.418-1.004-.278-.27-.706-.473-1.282-.607l-1.909-.447c-1.05-.248-1.818-.635-2.309-1.16-.489-.523-.734-1.182-.734-1.972,0-.646.183-1.218.548-1.716.365-.496.865-.887,1.499-1.17s1.354-.426,2.159-.426c1.134,0,2.024.249,2.674.746.648.497,1.109,1.153,1.383,1.969Z" fill="#fff" stroke-width="0"/>
        <path d="M333.128,384.454v6.891h-1.76v-15.272h1.76v5.608h.149c.269-.592.673-1.062,1.212-1.414.539-.35,1.259-.525,2.159-.525.78,0,1.464.156,2.051.467.586.311,1.043.785,1.368,1.424s.488,1.451.488,2.436v7.277h-1.76v-7.158c0-.91-.235-1.615-.705-2.115-.47-.499-1.119-.749-1.95-.749-.576,0-1.092.122-1.547.366-.455.243-.812.599-1.074,1.066-.261.467-.392,1.033-.392,1.699Z" fill="#fff" stroke-width="0"/>
      </g>
    </g>
  </g>
</svg>